<svg xmlns="http://www.w3.org/2000/svg" width="210" height="25.851" viewBox="0 0 210 25.851">
  <g id="SpaceX-Logo" transform="translate(0)">
    <path id="Path_1" data-name="Path 1" d="M66.625,15.094H48.868l-.658.492v15.8h4.916V25.459l.469-.42H66.626c3.29,0,4.833-.885,4.833-3.157V18.255c0-2.275-1.543-3.161-4.833-3.161m0,5.84c0,1.07-.708,1.292-2.25,1.292H53.649l-.524-.509V18.333l.469-.429h10.78c1.542,0,2.25.22,2.25,1.295Z" transform="translate(-17.683 -5.536)" fill="#fff"/>
    <path id="Path_2" data-name="Path 2" d="M94.594,17.965l4.23,6.2-.234.6H89.235L86.847,27.7h13.924l.965.588,2.162,2.982h5.625L97.193,14.775" transform="translate(-31.855 -5.419)" fill="#fff"/>
    <path id="Path_3" data-name="Path 3" d="M184.523,31.347V26.963l.506-.437h9.411V23.734H179.524V34.555h22V31.776H185.051" transform="translate(-65.848 -8.705)" fill="#fff"/>
    <rect id="Rectangle_1" data-name="Rectangle 1" width="22.234" height="3.07" transform="translate(113.676 9.558)" fill="#fff"/>
    <path id="Path_4" data-name="Path 4" d="M137.16,18h17.912c-.276-2.278-1.689-2.91-5.275-2.91H136.969c-4.046,0-5.336.79-5.336,3.851v8.589c0,3.065,1.29,3.854,5.336,3.854H149.8c3.638,0,5.031-.683,5.126-3.046H137.16l-.527-.5V18.331" transform="translate(-48.282 -5.535)" fill="#fff"/>
    <path id="Path_5" data-name="Path 5" d="M18.574,21.44H5.543l-.384-.422V18.23l.382-.3H23.108l.24-.587c-.6-1.539-2.148-2.257-5.025-2.257H6.12c-4.043,0-5.335.79-5.335,3.851v1.8c0,3.065,1.292,3.854,5.335,3.854h13l.408.358v2.914l-.333.455H4.325V28.31H.429s-.446.224-.429.328c.332,2.142,1.791,2.748,5.284,2.748H18.574c4.042,0,5.373-.79,5.373-3.854V25.288c0-3.06-1.331-3.848-5.373-3.848" transform="translate(0 -5.535)" fill="#fff"/>
    <path id="Path_6" data-name="Path 6" d="M232.258,14.988h-7.314l-.4.755,8.123,5.921c1.539-.891,3.213-1.794,5.034-2.685" transform="translate(-82.362 -5.497)" fill="#fff"/>
    <path id="Path_7" data-name="Path 7" d="M247.075,30.7l7.139,5.206h7.4l.306-.69-10.661-7.8q-2.124,1.559-4.189,3.286" transform="translate(-90.625 -10.055)" fill="#fff"/>
    <path id="Path_8" data-name="Path 8" d="M230.849,25.839h-6.618l-.559-.876C228.172,20.619,248.3,2,292.041,0c0,0-36.717,1.239-61.192,25.839" transform="translate(-82.041)" fill="#fff"/>
  </g>
</svg>
